<svg width="19" height="21" viewBox="0 0 19 21" fill="none" xmlns="http://www.w3.org/2000/svg">
<path fill-rule="evenodd" clip-rule="evenodd" d="M12.9802 0.916626C16.5136 0.916626 18.5406 2.52567 18.5406 5.32879V19.2591C18.5406 19.8437 18.2136 20.3698 17.6636 20.664C17.1156 20.9592 16.4552 20.965 15.9011 20.6775L9.69273 17.4508L3.4271 20.6842C3.15627 20.8241 2.8594 20.895 2.56148 20.895C2.25419 20.895 1.9469 20.8193 1.66773 20.6679C1.11877 20.3737 0.791687 19.8475 0.791687 19.2639V5.15342C0.791687 2.4605 2.81981 0.916626 6.35627 0.916626H12.9802ZM12.9802 2.35413H6.35627C3.70106 2.35413 2.35419 3.29521 2.35419 5.15342V19.2639C2.35419 19.354 2.41044 19.4029 2.45731 19.4278C2.50419 19.4546 2.57815 19.4738 2.66356 19.4297L9.31148 15.9989C9.54898 15.8772 9.8396 15.8762 10.0781 15.9998L16.6688 19.4249C16.7552 19.4709 16.8292 19.4498 16.8761 19.424C16.9229 19.3981 16.9781 19.3492 16.9781 19.2591L16.9778 5.21959C16.9699 4.39478 16.7964 2.35413 12.9802 2.35413ZM13.4373 7.36477C13.8686 7.36477 14.2186 7.68677 14.2186 8.08352C14.2186 8.48027 13.8686 8.80227 13.4373 8.80227H5.8144C5.38315 8.80227 5.03315 8.48027 5.03315 8.08352C5.03315 7.68677 5.38315 7.36477 5.8144 7.36477H13.4373Z" fill="black"/>
</svg>
